HIERARCHY
ROOT hip
{
	OFFSET 0.000000 0.000000 0.000000 
	CHANNELS 6 Xposition Yposition Zposition Xrotation Zrotation Yrotation
	JOINT abdomen
	{
		OFFSET 0.000000 3.402643 0.000000 
		CHANNELS 3 Xrotation Zrotation Yrotation
		JOINT chest
		{
			OFFSET 0.000000 8.438565 -0.680529 
			CHANNELS 3 Xrotation Zrotation Yrotation
			JOINT neck
			{
				OFFSET 0.000000 10.207942 -0.272212 
				CHANNELS 3 Xrotation Zrotation Yrotation
				JOINT head
				{
					OFFSET 0.000000 3.130431 0.000000 
					CHANNELS 3 Xrotation Zrotation Yrotation
					End Site
					{
						OFFSET 0.000000 3.130435 0.000000 
					}
				}
			}
			JOINT lCollar
			{
				OFFSET 3.470700 6.669187 -0.816635 
				CHANNELS 3 Yrotation Zrotation Xrotation
				JOINT lShldr
				{
					OFFSET 3.198488 0.000000 0.000000 
					CHANNELS 3 Zrotation Yrotation Xrotation
					JOINT lForeArm
					{
						OFFSET 10.139888 0.000000 0.000000 
						CHANNELS 3 Yrotation Zrotation Xrotation
						JOINT lHand
						{
							OFFSET 8.370511 0.000000 0.000000 
							CHANNELS 3 Zrotation Yrotation Xrotation
							End Site
							{
								OFFSET 4.083176 0.000000 0.000000 
							}
						}
					}
				}
			}
			JOINT rCollar
			{
				OFFSET -3.470700 6.669187 -0.816635 
				CHANNELS 3 Yrotation Zrotation Xrotation
				JOINT rShldr
				{
					OFFSET -3.198488 0.000000 0.000000 
					CHANNELS 3 Zrotation Yrotation Xrotation
					JOINT rForeArm
					{
						OFFSET -10.139888 0.000000 0.000000 
						CHANNELS 3 Yrotation Zrotation Xrotation
						JOINT rHand
						{
							OFFSET -8.370511 0.000000 0.000000 
							CHANNELS 3 Zrotation Yrotation Xrotation
							End Site
							{
								OFFSET -4.083176 0.000000 0.000000 
							}
						}
					}
				}
			}
		}
	}
	JOINT lThigh
	{
		OFFSET 5.308129 -1.633274 1.361059 
		CHANNELS 3 Xrotation Zrotation Yrotation
		JOINT lShin
		{
			OFFSET -2.041588 -20.007561 0.000000 
			CHANNELS 3 Xrotation Zrotation Yrotation
			JOINT lFoot
			{
				OFFSET 0.000000 -19.190928 -1.224953 
				CHANNELS 3 Xrotation Yrotation Zrotation
				End Site
				{
					OFFSET 0.000000 -2.449906 4.627600 
				}
			}
		}
	}
	JOINT rThigh
	{
		OFFSET -5.308129 -1.633274 1.361059 
		CHANNELS 3 Xrotation Zrotation Yrotation
		JOINT rShin
		{
			OFFSET 2.041588 -20.007561 0.000000 
			CHANNELS 3 Xrotation Zrotation Yrotation
			JOINT rFoot
			{
				OFFSET 0.000000 -19.190928 -1.224953 
				CHANNELS 3 Xrotation Yrotation Zrotation
				End Site
				{
					OFFSET 0.000000 -2.449906 4.627600 
				}
			}
		}
	}
}
MOTION
Frames: 8
Frame Time: 0.016667
-0.733810 45.252949 -0.646778 1.461190 -5.242440 -1.051840 -20.875799 2.772410 2.110010 17.909500 1.268180 1.406230 7.231550 0.164425 -2.267640 8.934840 4.893660 -0.828236 2.000000 -2.000000 0.000000 -88.650703 1.726420 170.895004 27.158501 -0.336491 0.062465 0.046890 -0.026811 -146.541000 -2.000000 2.000000 0.000000 88.883598 1.543100 167.572006 -22.900600 0.340788 0.053204 -0.074335 0.056210 -157.429993 -8.100259 1.416140 1.204391 29.469831 3.004533 2.131950 -18.788540 2.864007 0.962431 -8.126561 7.986888 3.637888 27.770237 -2.636987 -2.157329 -14.443130 -8.386423 -2.576449 
-0.693312 45.288414 -0.709137 1.500780 -5.388790 -1.225250 -20.871201 2.570550 2.239130 17.851400 0.712096 1.450730 7.372350 0.381417 -2.298000 9.003820 4.931930 -0.828793 2.000000 -2.000000 0.000000 -88.201698 1.786210 171.401993 27.344101 -0.336289 0.062858 0.047148 -0.028292 -147.078003 -2.000000 2.000000 0.000000 89.235001 1.611820 167.416000 -23.115499 0.340588 0.053675 -0.073675 0.054413 -156.746002 -8.294597 1.543494 1.331916 29.638813 2.989262 2.145794 -18.728783 2.870829 0.953458 -8.237890 7.968117 3.156242 27.642822 -2.632056 -2.148533 -14.424762 -7.407225 -2.305976 
-0.609948 45.310390 -0.775411 1.352860 -5.027900 -1.202970 -20.639099 1.906830 2.360470 18.046801 -0.273175 1.427990 6.866110 0.841483 -2.278010 8.828410 5.040630 -0.795025 2.000000 -2.000000 0.000000 -87.498398 1.424170 171.100006 27.295200 -0.336342 0.062754 0.047001 -0.027457 -146.774994 -2.000000 2.000000 0.000000 90.045601 1.846440 167.309006 -23.613501 0.340117 0.054766 -0.073307 0.053383 -156.354996 -8.029496 1.040451 1.359151 29.285419 2.986897 2.139728 -18.466639 2.910693 0.946050 -8.329240 7.654216 3.808535 28.053440 -2.649918 -2.155711 -14.525338 -7.943887 -2.468502 
-0.535478 45.313862 -0.869712 1.156290 -4.735370 -1.023680 -20.523199 1.707520 2.218170 17.958900 -0.360957 1.324970 6.751610 0.801911 -2.175470 8.769500 5.031450 -0.753008 2.000000 -2.000000 0.000000 92.667099 178.406998 -7.503550 27.812799 -0.335771 0.063849 0.048034 -0.032856 -148.738007 -2.000000 2.000000 0.000000 89.919098 1.932100 168.266006 -23.847900 0.339892 0.055278 -0.073777 0.054696 -156.852997 -7.893943 0.695251 1.606771 29.069019 2.979941 2.111687 -17.991133 2.732195 0.829447 -8.450089 7.240860 3.699258 28.572628 -2.672879 -2.191661 -14.163599 -7.817111 -2.371423 
-0.505614 45.354469 -1.003552 1.254850 -5.037860 -1.018850 -20.587400 2.183760 2.069510 17.714800 0.321869 1.312150 6.598480 0.683586 -2.249460 8.661930 5.061650 -0.808899 2.000000 -2.000000 0.000000 -88.230904 1.219600 171.315994 27.177999 -0.336470 0.062506 0.047380 -0.029556 -147.537003 -2.000000 2.000000 0.000000 89.264801 1.912730 168.197998 -24.082300 0.339665 0.055790 -0.074059 0.055466 -157.145996 -8.175064 1.060527 1.856567 29.059149 2.976390 2.101190 -17.634470 2.727296 0.849419 -8.493529 7.775784 4.862202 28.191906 -2.644937 -2.171654 -13.458784 -8.805697 -2.547435 
-0.424562 45.369503 -1.144210 1.137070 -4.959970 -0.850753 -20.461700 2.109350 1.954460 17.636700 0.312094 1.243850 6.664570 1.237650 -2.441270 8.693560 5.294970 -0.903611 2.000000 -2.000000 0.000000 91.993301 178.591995 -7.346890 27.881201 -0.335695 0.063994 0.048079 -0.033070 -148.815994 -2.000000 2.000000 0.000000 89.216003 2.010270 168.246994 -24.531500 0.339223 0.056766 -0.074021 0.055363 -157.106995 -8.285653 0.902991 2.099298 28.963430 2.958957 2.117663 -17.049334 2.750059 0.812033 -8.707918 7.483128 4.263301 28.436867 -2.650804 -2.178850 -13.466811 -8.219005 -2.405450 
-0.326215 45.393925 -1.297070 1.195500 -4.745070 -0.900159 -20.312500 2.094370 2.109280 17.675699 0.312105 1.312420 6.307160 2.324390 -3.427800 8.570150 5.714770 -1.389990 2.000000 -2.000000 0.000000 91.710197 179.179001 -7.775280 27.695601 -0.335901 0.063602 0.047590 -0.030658 -147.936996 -2.000000 2.000000 0.000000 89.098503 2.373030 167.632996 -24.717100 0.339039 0.057169 -0.074097 0.055569 -157.184998 -8.380784 0.589694 2.186367 28.662766 2.921120 2.113091 -16.621876 2.769435 0.788731 -9.170732 7.046400 3.818361 28.880909 -2.643659 -2.228541 -13.454042 -7.704616 -2.265750 
-0.245709 45.385303 -1.505120 1.195140 -4.530270 -0.758952 -20.235201 2.008010 2.017990 17.451000 0.526569 1.240960 6.204970 3.060590 -4.890690 8.542680 5.909770 -2.119790 2.000000 -2.000000 0.000000 91.671204 179.315994 -7.882390 28.056900 -0.335498 0.064364 0.047451 -0.029933 -147.673996 -2.000000 2.000000 0.000000 88.952400 2.254180 168.345001 -25.273701 0.338478 0.058373 -0.075046 0.058075 -158.141998 -8.695380 0.319648 2.434844 28.732334 2.911511 2.109795 -16.563871 2.500372 0.692755 -9.431417 6.869597 4.361330 28.929792 -2.645115 -2.228126 -13.056005 -8.558503 -2.436255 
